<?xml version="1.0" encoding="iso-8859-1"?>
<!-- Generator: Adobe Illustrator 19.0.0, SVG Export Plug-In . SVG Version: 6.00 Build 0)  -->
<svg version="1.1" id="Layer_1" xmlns="http://www.w3.org/2000/svg" xmlns:xlink="http://www.w3.org/1999/xlink" x="0px" y="0px"
	 viewBox="0 0 100 100" style="enable-background:new 0 0 100 100;" xml:space="preserve">
<path style="fill:#5B5C5C;" d="M97.567,25.677c-0.47-1.285-1.276-2.846-2.549-3.482c-0.375-0.188-0.844,0.375-1.689,0.563
	c-0.845,0.187-14.171-5.913-15.109-6.288c-0.939-0.375-0.938-0.844-1.877-1.22c-0.939-0.376-4.129,0.656-6.194,0.938
	c-2.065,0.281-13.044,4.223-16.235,4.786c-3.41,0.601-6.943,0.699-10.39,0.776c-2.536,0.057-5.067,0.187-7.596,0.388
	c-2.353,0.187-4.782,0.339-7.023,1.139c-2.049,0.731-3.463,2.4-5.187,3.65c-1.657,1.201-3.353,2.348-5.048,3.495
	c-2.421,1.637-4.86,3.248-7.308,4.845c-1.136,0.741-2.274,1.481-3.417,2.214c-0.01,0.006-0.013,0.009-0.023,0.014
	c-0.142,0.074-1.999,1.039-2.902,1.31c-0.938,0.281-3.378,0.844-3.566,1.689c-0.058,0.258,0.054,0.532,0.114,0.781
	c0.751,3.096,1.915,6.528,4.693,8.385c1.569,1.048,3.49,1.424,5.369,1.595c2.194,0.204,4.39,0.329,6.574,0.633
	c0.166,0.023,0.348,0.055,0.456,0.184c0.097,0.116,0.107,0.279,0.112,0.43c0.039,1.067,0.086,2.133,0.076,3.201
	c-0.016,1.725,0.039,3.45,0.102,5.174c0.018,0.5,0.079,1.016,0.396,1.393c0.259,0.307,0.647,0.469,1.024,0.607
	c2.874,1.052,5.885,1.134,8.908,1.245c0.828,0.031,0.981,0.484,1.524,1.078c1.116,1.221,2.342,2.336,3.596,3.413
	c2.986,2.564,6.157,4.932,9.602,6.836c4.786,2.646,10.025,4.358,15.274,5.906c2.926,0.865,5.873,1.677,8.868,2.269
	c6.104,1.205,12.736,1.491,18.631-0.811c4.331-1.691,8.592-5.015,9.073-9.96c0.345-3.548-2.016-6.244-3.825-9.031
	c-0.676-1.04-1.238-2.057-1.489-3.283c-0.234-1.142-0.491-3.223-0.586-4.03c-0.023-0.19,0.103-0.362,0.291-0.403l1.925-0.419
	c0.172-0.037,0.295-0.191,0.293-0.368l-0.047-4.393c-0.002-0.173-0.123-0.322-0.292-0.36l-2.206-0.49
	c-0.184-0.041-0.309-0.207-0.291-0.395c0.088-0.907,0.344-3.5,0.503-4.923c0.092-0.823,0.865-0.778,1.493-1.021
	c0.552-0.213,1.199-0.346,1.581-0.839c0.464-0.598,0.41-1.549,0.554-2.263c0.197-0.977,0.391-1.946,0.789-2.866
	c0.489-1.132,1.159-2.172,1.744-3.253c0.684-1.262,1.255-2.596,1.551-4C98.17,28.922,98.13,27.216,97.567,25.677z M79.006,45.861
	c-3.19,1.065-6.716-2.295-7.408-7.659c-0.692-5.364,1.864-9.509,5.22-9.289c2.915,0.19,5.444,3.692,5.98,7.843
	C83.334,40.907,81.776,44.936,79.006,45.861z"/>
<g id="Layer_2">
</g>
</svg>
