<?xml version="1.0" encoding="iso-8859-1"?>
<!-- Generator: Adobe Illustrator 19.0.0, SVG Export Plug-In . SVG Version: 6.00 Build 0)  -->
<svg version="1.1" id="Layer_1" xmlns="http://www.w3.org/2000/svg" xmlns:xlink="http://www.w3.org/1999/xlink" x="0px" y="0px"
	 viewBox="0 0 100 100" style="enable-background:new 0 0 100 100;" xml:space="preserve">
<g id="female">
	<g id="XMLID_6_">
		<circle id="XMLID_21_" style="fill:#5B5C5C;" cx="68.462" cy="7.953" r="7.953"/>
	</g>
	<g id="XMLID_7_">
		<path id="XMLID_22_" style="fill:#5B5C5C;" d="M80.23,34.377l8.372,17.597c0.695,1.673,2.614,2.465,4.287,1.769
			c0.031-0.013,0.061-0.026,0.092-0.038c1.671-0.695,2.462-2.613,1.767-4.284c0,0-6.864-14.97-10.458-22.616
			s-11.424-7.646-11.424-7.646h-8.404c0,0-8.174-0.036-11.079,7.663c-2.905,7.699-8.332,22.08-8.332,22.08
			c-0.582,1.72,0.346,3.587,2.069,4.16c0.032,0.01,0.063,0.021,0.095,0.031c1.712,0.57,3.563-0.35,4.141-2.06l6.624-17.031
			c0.641-1.895,3.759-1.427,3.759-1.427L49.091,68.757h10.965v27.306c0,2.175,1.301,3.938,3.475,3.938h0.639
			c2.175,0,3.938-1.763,3.938-3.938V70.68c0-2,3.103-1.997,3.103,0v25.383c0,2.175,1.763,3.938,3.938,3.938h0
			c2.175,0,3.354-1.763,3.354-3.938V68.757H89.34L76.384,33.207C76.384,33.207,79.464,32.533,80.23,34.377z"/>
	</g>
</g>
<g id="male_1_">
	<g id="XMLID_11_">
		<circle id="XMLID_24_" style="fill:#5B5C5C;" cx="24.931" cy="7.867" r="7.969"/>
	</g>
	<g id="XMLID_3_">
		<path id="XMLID_23_" style="fill:#5B5C5C;" d="M38.331,33.244V55.11c0,1.815,1.472,3.286,3.287,3.285c0.033,0,0.067,0,0.1,0
			C43.531,58.394,45,56.923,45,55.11V27.797c0-4.837-3.921-8.758-8.758-8.758H14.668c-4.837,0-8.758,3.921-8.758,8.758v26.059
			c0,1.82,1.48,3.294,3.299,3.285c0.033,0,0.067,0,0.1,0c1.808-0.009,3.27-1.476,3.27-3.285V33.137c0-2.004,3.11-2.561,3.11-2.561
			v65.58c0,2.179,1.766,3.945,3.945,3.945h0.641c2.179,0,3.945-1.766,3.945-3.945V60.478c0-2.004,3.11-2.001,3.11,0v35.678
			c0,2.179,1.766,3.945,3.945,3.945h0c2.179,0,3.945-1.766,3.945-3.945V30.683C35.222,30.683,38.331,31.243,38.331,33.244z"/>
	</g>
</g>
</svg>
