<?xml version="1.0" encoding="utf-8"?>
<!-- Generator: Adobe Illustrator 19.0.0, SVG Export Plug-In . SVG Version: 6.00 Build 0)  -->
<svg version="1.1" id="Layer_1" xmlns="http://www.w3.org/2000/svg" xmlns:xlink="http://www.w3.org/1999/xlink" x="0px" y="0px"
	 viewBox="0 0 100 100" style="enable-background:new 0 0 100 100;" xml:space="preserve">
<style type="text/css">
	.st0{fill:#19A6CC;}
	.st1{display:none;}
</style>
<g id="Layer_3">
	<g id="XMLID_2_">
		<path id="XMLID_25_" class="st0" d="M68.3,77.5c-1.8-1.3-8.3,0.1-8.4-0.2c0-0.3,0.7,0,1.1-0.7c0.5-0.7-2.3,0.1-3.2,0.3
			c-1.3,0.4-2.7,0.6-4,0.8c-2.7,0.4-5.6,0.6-8.3-0.3c-1.2-0.4-2.3-1-3.5-1.6c-1.4-0.7-2.7-1.5-4-2.4c-1.2-0.9-2.4-1.9-3.5-3
			c-2.6-2.5-5.1-5.2-7.6-7.9c-2.1-2.4-4.5-4.7-5.9-7.8c-0.1-0.3-0.2-0.5-0.4-0.8l-1.1-0.5c0,0-0.7-3.5-0.7-3.5
			c-0.2-1.2,0.3-2.1,0-3.2c-0.3-0.9-1.2-1.6-2-1.7c-0.3,0-0.6,0-0.7-0.4c-0.2-0.5-0.3-1.9-0.4-2.5c0-0.8-0.1-1.6,0.1-2.3
			c0.2-0.9,0.6-1.7,1.2-2.3c1.4-1.4,3.5-2.3,5-2.7c3.7-1,6.5-1.8,10.2-2.8c3.4-0.9,10.4-2,10.4-2s4.5-1.1,6.8-1.1c0.6,0,1.3,0,1.9,0
			c0.6-0.1,1.2-0.2,1.8-0.7c0.3-0.2,0.5-0.5,0.5-0.9c0-0.4-0.4-0.6-0.7-0.8c-1.5-0.9-3.4-0.9-4.9,0c-0.2,0.1-0.5,0.3-0.6,0.6
			s-0.1,0.7,0.1,0.8c-1.7,0.3-3.5,0.7-5.2,1c-3.5,0.7-6.9,1.3-10.4,2.1c-3.4,0.8-6.8,1.7-10.1,2.7c-2,0.7-4.2,1.6-5.6,3.4
			c-0.3,0.4-0.6,0.8-0.8,1.3c-0.5,1.2-0.6,2.7-0.6,4c0,1.2,0.2,2,0.6,3.2c0.2,0.4-0.1,0.9-0.1,1.3c-0.1,0.5,0,0.9,0.1,1.3
			c0.2,0.9,0.9,1.3,1.5,1.8l0.6,3.7c0,0-0.7,3-0.4,4.4c0.8,4.7,3.3,8.5,6.1,11.8c4.6,5.3,9.4,10.4,15.5,13.1c0,0,0.1,0,0.1,0
			c5.9,2.5,12.7,2.4,18.7,0.6c1.8-0.5,6.3-1.5,7.4-2.2c1.1-0.7-0.8-0.1-0.7-0.7C64.3,80.3,69.7,78.5,68.3,77.5z"/>
	</g>
	<path id="XMLID_7_" class="st0" d="M98.5,27.2L51.9,14.9c-0.1,0-0.2,0-0.2,0l-50,14.7c-0.5,0.1-0.5,0.9-0.1,1.1l20,8.9
		c-2.7,2.8-2.6,8.2-0.9,11.5c1.7,3.2,4.5,5.8,6.9,8.1c2.7,2.6,5.5,5,8.5,7c2.3,1.5,4.7,2.8,7.2,3.6C44,70,47,71.2,50,71.2
		s6.1-1,6.6-1.2c2.3-0.8,4.4-1.8,6.5-3.1c3.7-2.2,7.2-4.9,10.5-7.8c1.6-1.4,3-2.9,4.4-4.4c1.3-1.3,2.8-2.5,3.5-4.3
		c0.8-2,0.8-4.7,0.4-6.9c-0.3-1.6-1.2-2.6-2-3.8c-0.1-0.1-0.1-0.2-0.2-0.3c-0.6-0.8-1.1-1.5-1.7-2.3l20.5-8.8
		C99.1,28.2,99,27.4,98.5,27.2z"/>
</g>
<g id="Layer_2" class="st1">
</g>
</svg>
