<?xml version="1.0" encoding="iso-8859-1"?>
<!-- Generator: Adobe Illustrator 19.0.0, SVG Export Plug-In . SVG Version: 6.00 Build 0)  -->
<svg version="1.1" id="Layer_1" xmlns="http://www.w3.org/2000/svg" xmlns:xlink="http://www.w3.org/1999/xlink" x="0px" y="0px"
	 viewBox="0 0 100 100" style="enable-background:new 0 0 100 100;" xml:space="preserve">
<g id="Layer_3">
	<g id="XMLID_2_">
		<path id="XMLID_25_" style="fill:#5B5C5C;" d="M68.34,77.472c-1.8-1.347-8.35,0.112-8.356-0.176
			C59.979,77,60.641,77.262,61.1,76.581c0.46-0.68-2.319,0.107-3.169,0.343c-1.314,0.365-2.666,0.62-4.004,0.836
			c-2.744,0.443-5.581,0.559-8.271-0.341c-1.191-0.399-2.33-0.987-3.458-1.588c-1.357-0.722-2.709-1.468-3.984-2.371
			c-1.237-0.876-2.395-1.897-3.525-2.955c-2.64-2.471-5.134-5.15-7.561-7.903c-2.115-2.401-4.537-4.692-5.932-7.769
			c-0.124-0.273-0.245-0.547-0.364-0.822l-1.121-0.522c0,0-0.685-3.523-0.685-3.528c-0.236-1.243,0.312-2.137,0.003-3.202
			c-0.262-0.902-1.188-1.602-1.988-1.65c-0.295-0.018-0.602,0.013-0.748-0.351c-0.21-0.522-0.335-1.896-0.358-2.463
			c-0.033-0.781-0.057-1.569,0.091-2.337c0.173-0.902,0.629-1.67,1.24-2.318c1.359-1.442,3.487-2.287,4.984-2.671
			c3.746-0.963,6.497-1.797,10.243-2.76c3.41-0.876,10.392-2.021,10.392-2.021s4.479-1.149,6.761-1.148
			c0.615,0,1.256,0.035,1.872-0.028c0.635-0.066,1.243-0.235,1.768-0.653c0.258-0.205,0.503-0.519,0.474-0.883
			c-0.03-0.388-0.352-0.646-0.651-0.813c-1.53-0.856-3.383-0.869-4.921-0.033c-0.24,0.131-0.483,0.292-0.622,0.556
			s-0.131,0.659,0.081,0.845c-1.727,0.334-3.455,0.66-5.184,0.988c-3.472,0.661-6.942,1.336-10.391,2.122
			c-3.397,0.773-6.773,1.653-10.11,2.731c-2.041,0.66-4.225,1.576-5.587,3.374c-0.307,0.405-0.586,0.84-0.796,1.343
			c-0.522,1.249-0.625,2.66-0.602,4.032c0.022,1.245,0.19,2.042,0.625,3.158c0.151,0.387-0.079,0.94-0.13,1.333
			c-0.059,0.458-0.024,0.889,0.077,1.336c0.199,0.878,0.872,1.276,1.55,1.816l0.6,3.729c0,0-0.673,3.011-0.448,4.377
			c0.768,4.669,3.252,8.514,6.067,11.75c4.578,5.262,9.397,10.443,15.516,13.06c0.031,0.013,0.062,0.027,0.093,0.04
			c5.898,2.493,12.655,2.351,18.702,0.643c1.757-0.496,6.32-1.529,7.439-2.191c1.119-0.662-0.773-0.098-0.745-0.714
			C64.35,80.34,69.691,78.482,68.34,77.472z"/>
	</g>
	<path id="XMLID_7_" style="fill:#5B5C5C;" d="M98.548,27.227L51.929,14.891c-0.077-0.02-0.157-0.019-0.233,0.004L1.729,29.612
		c-0.479,0.141-0.517,0.925-0.055,1.129l20.045,8.869c-2.689,2.847-2.626,8.152-0.878,11.535c1.671,3.232,4.481,5.763,6.929,8.138
		c2.674,2.593,5.514,4.959,8.538,6.954c2.271,1.499,4.668,2.754,7.171,3.609c0.523,0.179,3.479,1.316,6.52,1.316
		s6.067-1.048,6.576-1.222c2.26-0.774,4.444-1.841,6.55-3.071c3.729-2.178,7.238-4.876,10.544-7.845
		c1.554-1.396,2.972-2.915,4.447-4.412c1.275-1.295,2.777-2.454,3.508-4.31c0.805-2.044,0.779-4.718,0.422-6.882
		c-0.259-1.575-1.153-2.627-2.029-3.764c-0.07-0.091-0.139-0.181-0.208-0.273c-0.569-0.756-1.137-1.512-1.706-2.268l20.504-8.753
		C99.082,28.161,99.039,27.358,98.548,27.227z"/>
</g>
<g id="Layer_2" style="display:none;">
</g>
</svg>
