<?xml version="1.0" encoding="utf-8"?>
<!-- Generator: Adobe Illustrator 19.0.0, SVG Export Plug-In . SVG Version: 6.00 Build 0)  -->
<svg version="1.1" id="Layer_1" xmlns="http://www.w3.org/2000/svg" xmlns:xlink="http://www.w3.org/1999/xlink" x="0px" y="0px"
	 viewBox="0 0 100 100" style="enable-background:new 0 0 100 100;" xml:space="preserve">
<style type="text/css">
	.st0{fill:#19A6CC;}
	.st1{fill:none;stroke:#19A6CC;stroke-width:6;stroke-linecap:round;stroke-miterlimit:10;}
</style>
<path id="XMLID_2_" class="st0" d="M73.9,5.3c-10.3,0.6-21,8.8-22.7,19.4c-1.3,8.1,2.9,16.8,5.6,24.3c2.4,6.6,4.9,13.2,7.4,19.8
	c3.3,8.5,6.6,17,10.2,25.4c0.4,0.9,1.6,0.9,2,0C80.1,84.7,84,75.4,87.7,66c2.4-6.1,4.8-12.3,7.1-18.5c2.3-6.1,5.1-11.9,5.1-18.5
	C100,15.4,87.2,4.4,73.9,5.3z M76.4,39.6c-6,0.6-11.1-4.4-10.5-10.5c0.4-4.5,4.1-8.1,8.5-8.5C80.5,20,85.6,25,85,31
	C84.5,35.5,80.9,39.1,76.4,39.6z"/>
<g id="XMLID_12_">
	<path id="XMLID_33_" class="st0" d="M65.5,30.1c0-0.8,0.1-1.5,0.3-2.2c-6.7-8.8-17.3-14.5-29.2-14.5C16.4,13.4,0,29.8,0,50
		s16.4,36.6,36.6,36.6S73.2,70.2,73.2,50c0-3.8-0.6-7.5-1.7-11C68,37.5,65.5,34.1,65.5,30.1z M36.6,78.2C21,78.2,8.4,65.6,8.4,50
		S21,21.8,36.6,21.8S64.9,34.4,64.9,50C64.9,65.6,52.2,78.2,36.6,78.2z"/>
</g>
<polyline id="XMLID_1_" class="st1" points="25.6,64.4 38.9,51.1 39,31.6 "/>
</svg>
