<?xml version="1.0" encoding="iso-8859-1"?>
<!-- Generator: Adobe Illustrator 19.0.0, SVG Export Plug-In . SVG Version: 6.00 Build 0)  -->
<svg version="1.1" id="Layer_2" xmlns="http://www.w3.org/2000/svg" xmlns:xlink="http://www.w3.org/1999/xlink" x="0px" y="0px"
	 viewBox="0 0 100 100" style="enable-background:new 0 0 100 100;" xml:space="preserve">
<g id="male_2_">
	<g id="XMLID_39_">
		<circle id="XMLID_38_" style="fill:#5B5C5C;" cx="79.704" cy="14.044" r="6.971"/>
	</g>
	<g id="XMLID_17_">
		<path id="XMLID_44_" style="fill:#5B5C5C;" d="M91.425,36.241v19.127c0,1.588,1.287,2.874,2.875,2.873c0.029,0,0.058,0,0.087,0
			c1.586-0.001,2.871-1.287,2.871-2.873V31.477c0-4.231-3.43-7.661-7.661-7.661H70.727c-4.231,0-7.661,3.43-7.661,7.661v22.795
			c0,1.592,1.294,2.881,2.886,2.873c0.029,0,0.058,0,0.087,0c1.582-0.008,2.86-1.291,2.86-2.873V36.148c0-1.753,2.72-2.24,2.72-2.24
			v57.365c0,1.906,1.545,3.451,3.451,3.451h0.561c1.906,0,3.451-1.545,3.451-3.451V60.064c0-1.753,2.72-1.75,2.72,0v31.209
			c0,1.906,1.545,3.451,3.451,3.451h0c1.906,0,3.451-1.545,3.451-3.451V34.001C88.705,34.001,91.425,34.491,91.425,36.241z"/>
	</g>
</g>
<g id="male_3_">
	<g id="XMLID_51_">
		<circle id="XMLID_43_" style="fill:#5B5C5C;" cx="19.379" cy="14.044" r="6.971"/>
	</g>
	<g id="XMLID_41_">
		<path id="XMLID_42_" style="fill:#5B5C5C;" d="M31.1,36.241v18.127c0,1.588,1.287,2.874,2.875,2.873c0.029,0,0.058,0,0.087,0
			c1.586-0.001,2.871-1.287,2.871-2.873V31.477c0-4.231-3.43-7.661-7.661-7.661H10.402c-4.231,0-7.661,3.43-7.661,7.661v21.795
			c0,1.592,1.294,2.881,2.886,2.873c0.029,0,0.058,0,0.087,0c1.582-0.008,2.86-1.291,2.86-2.873V36.148c0-1.753,2.72-2.24,2.72-2.24
			v57.365c0,1.906,1.545,3.451,3.451,3.451h0.561c1.906,0,3.451-1.545,3.451-3.451V60.064c0-1.753,2.72-1.75,2.72,0v31.209
			c0,1.906,1.545,3.451,3.451,3.451h0c1.906,0,3.451-1.545,3.451-3.451V34.001C28.38,34.001,31.1,34.491,31.1,36.241z"/>
	</g>
</g>
<g id="male" style="display:none;">
	<path id="XMLID_57_" style="display:inline;fill:#FFFFFF;" d="M57.444,7.766c0,4.401-3.568,7.969-7.969,7.969
		s-7.969-3.568-7.969-7.969s3.568-7.969,7.969-7.969S57.444,3.365,57.444,7.766z M63,33.142v21.866C63,56.824,64.348,58,66.162,58
		c0.033,0,0.067,0,0.1,0C68.076,58,70,56.822,70,55.009V27.696C70,22.859,65.624,19,60.787,19H39.213C34.376,19,30,22.859,30,27.696
		v26.059C30,55.574,31.935,57,33.755,57c0.033,0,0.067,0,0.1,0C35.663,57,37,55.563,37,53.754V33.036c0-2.004,3-2.561,3-2.561v65.58
		c0,2.179,2,3.945,4.179,3.945h0.641c2.179,0,4.18-1.766,4.18-3.945V60c0-2,3-2,3,0v36.055c0,2.179,1.704,3.945,3.883,3.945h0.086
		C58.148,100,60,98.234,60,96.055V30.581C60,30.581,63,31.142,63,33.142z"/>
</g>
<g id="male_1_">
	<g id="XMLID_11_">
		<circle id="XMLID_37_" style="fill:#5B5C5C;" cx="49.476" cy="7.766" r="7.969"/>
	</g>
	<g id="XMLID_3_">
		<path id="XMLID_36_" style="fill:#5B5C5C;" d="M62.876,33.142v21.866c0,1.815,1.472,3.286,3.287,3.285c0.033,0,0.067,0,0.1,0
			c1.813-0.001,3.282-1.471,3.282-3.285V27.696c0-4.837-3.921-8.758-8.758-8.758H39.213c-4.837,0-8.758,3.921-8.758,8.758v26.059
			c0,1.82,1.48,3.294,3.299,3.285c0.033,0,0.067,0,0.1,0c1.808-0.009,3.27-1.476,3.27-3.285V33.036c0-2.004,3.11-2.561,3.11-2.561
			v65.58c0,2.179,1.766,3.945,3.945,3.945h0.641c2.179,0,3.945-1.766,3.945-3.945V60.377c0-2.004,3.11-2.001,3.11,0v35.678
			c0,2.179,1.766,3.945,3.945,3.945h0c2.179,0,3.945-1.766,3.945-3.945V30.581C59.766,30.581,62.876,31.142,62.876,33.142z"/>
	</g>
</g>
<g id="female">
	<g id="XMLID_6_">
		<path id="XMLID_35_" d="M-40.599,16.905c-4.937,0-8.953-4.016-8.953-8.953S-45.536-1-40.599-1c4.937,0,8.953,4.016,8.953,8.953
			S-35.662,16.905-40.599,16.905z"/>
		<path id="XMLID_32_" style="fill:#FFFFFF;" d="M-40.599,0c4.392,0,7.953,3.561,7.953,7.953s-3.561,7.953-7.953,7.953
			s-7.953-3.561-7.953-7.953S-44.991,0-40.599,0 M-40.599-2c-5.488,0-9.953,4.465-9.953,9.953s4.465,9.953,9.953,9.953
			s9.953-4.465,9.953-9.953S-35.111-2-40.599-2L-40.599-2z"/>
	</g>
	<g id="XMLID_7_">
		<path id="XMLID_29_" d="M-34.79,101c-2.723,0-4.938-2.215-4.938-4.938V70.68c0-0.435-0.346-0.499-0.552-0.499
			c-0.206,0-0.551,0.064-0.551,0.499v25.383c0,2.723-2.215,4.938-4.938,4.938h-0.64c-2.593,0-4.475-2.076-4.475-4.938V69.757
			h-11.374l12.654-36.202c-0.561,0.065-1.235,0.252-1.409,0.766l-6.639,17.073c-0.573,1.698-2.202,2.867-4.038,2.867
			c-0.458,0-0.913-0.074-1.351-0.22l-0.095-0.032c-1.088-0.362-1.968-1.127-2.478-2.153c-0.511-1.026-0.589-2.19-0.222-3.276
			l8.343-22.113c3.1-8.215,11.65-8.31,12.013-8.31h8.406c0.346,0,8.509,0.093,12.329,8.221c3.556,7.563,10.394,22.476,10.462,22.625
			c0.919,2.21-0.115,4.718-2.293,5.624c-0.616,0.257-1.17,0.368-1.734,0.368c-1.734,0-3.286-1.035-3.952-2.638l-8.352-17.551
			c-0.232-0.559-0.945-0.7-1.557-0.717l12.999,35.667h-11.267v26.306C-30.437,98.97-32.227,101-34.79,101z"/>
		<path id="XMLID_26_" style="fill:#FFFFFF;" d="M-45.479,19.157c0.001,0,0.002,0,0.002,0h8.404c0,0,7.83,0,11.424,7.646
			c3.594,7.646,10.458,22.616,10.458,22.616c0.694,1.671-0.097,3.589-1.767,4.284c-0.031,0.013-0.061,0.026-0.092,0.038
			c-0.412,0.171-0.838,0.253-1.258,0.253c-1.285,0-2.505-0.761-3.028-2.021l-8.372-17.597c-0.442-1.065-1.657-1.29-2.604-1.29
			c-0.693,0-1.242,0.12-1.242,0.12l12.957,35.549h-10.838v27.306c0,2.175-1.179,3.938-3.354,3.938c-2.175,0-3.938-1.763-3.938-3.938
			V70.68c0-0.999-0.776-1.499-1.553-1.499c-0.775,0-1.551,0.499-1.551,1.499v25.383c0,2.175-1.763,3.938-3.937,3.938h-0.639
			c-2.175,0-3.475-1.763-3.475-3.938V68.757h-10.965L-48.2,32.574c0,0-0.341-0.051-0.82-0.051c-0.971,0-2.51,0.21-2.938,1.478
			l-6.624,17.031c-0.462,1.366-1.737,2.229-3.105,2.229c-0.343,0-0.693-0.054-1.036-0.169c-0.031-0.01-0.063-0.021-0.095-0.031
			c-1.723-0.573-2.651-2.44-2.069-4.16c0,0,5.427-14.381,8.332-22.08C-53.678,19.193-45.628,19.157-45.479,19.157 M-37.072,17.157
			h-8.404c-0.393,0-9.609,0.102-12.951,8.957l-8.332,22.08l-0.012,0.032l-0.011,0.033c-0.453,1.34-0.356,2.776,0.275,4.043
			c0.63,1.266,1.716,2.209,3.058,2.656l0.094,0.031c0.541,0.18,1.102,0.271,1.669,0.271c1.646,0,3.157-0.762,4.138-2.002
			l-5.187,14.838l-0.93,2.66h2.818h8.965v25.306c0,3.44,2.303,5.938,5.475,5.938h0.639c2.473,0,4.597-1.52,5.489-3.674
			c0.892,2.154,3.016,3.674,5.489,3.674c3.152,0,5.354-2.442,5.354-5.938V70.757h8.838h2.858l-0.979-2.685l-9.257-25.398
			l4.814,10.119c0.833,1.947,2.732,3.202,4.854,3.202c0.698,0,1.379-0.137,2.027-0.406l0.071-0.03
			c2.706-1.126,3.983-4.221,2.867-6.906l-0.014-0.033l-0.015-0.033c-0.069-0.15-6.909-15.066-10.466-22.634
			C-27.925,17.257-36.701,17.157-37.072,17.157L-37.072,17.157z"/>
	</g>
</g>
</svg>
