<?xml version="1.0" encoding="utf-8"?>
<!-- Generator: Adobe Illustrator 19.0.0, SVG Export Plug-In . SVG Version: 6.00 Build 0)  -->
<svg version="1.1" id="Layer_2" xmlns="http://www.w3.org/2000/svg" xmlns:xlink="http://www.w3.org/1999/xlink" x="0px" y="0px"
	 viewBox="0 0 100 100" style="enable-background:new 0 0 100 100;" xml:space="preserve">
<style type="text/css">
	.st0{fill:#19A6CC;}
	.st1{display:none;}
	.st2{display:inline;fill:#FFFFFF;}
</style>
<g id="male_2_">
	<g id="XMLID_39_">
		<circle id="XMLID_38_" class="st0" cx="79.7" cy="14" r="7"/>
	</g>
	<g id="XMLID_17_">
		<path id="XMLID_44_" class="st0" d="M91.4,36.2v19.1c0,1.6,1.3,2.9,2.9,2.9c0,0,0.1,0,0.1,0c1.6,0,2.9-1.3,2.9-2.9V31.5
			c0-4.2-3.4-7.7-7.7-7.7H70.7c-4.2,0-7.7,3.4-7.7,7.7v22.8c0,1.6,1.3,2.9,2.9,2.9c0,0,0.1,0,0.1,0c1.6,0,2.9-1.3,2.9-2.9V36.1
			c0-1.8,2.7-2.2,2.7-2.2v57.4c0,1.9,1.5,3.5,3.5,3.5h0.6c1.9,0,3.5-1.5,3.5-3.5V60.1c0-1.8,2.7-1.8,2.7,0v31.2
			c0,1.9,1.5,3.5,3.5,3.5l0,0c1.9,0,3.5-1.5,3.5-3.5V34C88.7,34,91.4,34.5,91.4,36.2z"/>
	</g>
</g>
<g id="male_3_">
	<g id="XMLID_51_">
		<circle id="XMLID_43_" class="st0" cx="19.4" cy="14" r="7"/>
	</g>
	<g id="XMLID_41_">
		<path id="XMLID_42_" class="st0" d="M31.1,36.2v18.1c0,1.6,1.3,2.9,2.9,2.9c0,0,0.1,0,0.1,0c1.6,0,2.9-1.3,2.9-2.9V31.5
			c0-4.2-3.4-7.7-7.7-7.7H10.4c-4.2,0-7.7,3.4-7.7,7.7v21.8c0,1.6,1.3,2.9,2.9,2.9c0,0,0.1,0,0.1,0c1.6,0,2.9-1.3,2.9-2.9V36.1
			c0-1.8,2.7-2.2,2.7-2.2v57.4c0,1.9,1.5,3.5,3.5,3.5h0.6c1.9,0,3.5-1.5,3.5-3.5V60.1c0-1.8,2.7-1.8,2.7,0v31.2
			c0,1.9,1.5,3.5,3.5,3.5l0,0c1.9,0,3.5-1.5,3.5-3.5V34C28.4,34,31.1,34.5,31.1,36.2z"/>
	</g>
</g>
<g id="male" class="st1">
	<path id="XMLID_57_" class="st2" d="M57.4,7.8c0,4.4-3.6,8-8,8s-8-3.6-8-8s3.6-8,8-8S57.4,3.4,57.4,7.8z M63,33.1V55
		c0,1.8,1.3,3,3.2,3c0,0,0.1,0,0.1,0c1.8,0,3.7-1.2,3.7-3V27.7c0-4.8-4.4-8.7-9.2-8.7H39.2c-4.8,0-9.2,3.9-9.2,8.7v26.1
		c0,1.8,1.9,3.2,3.8,3.2c0,0,0.1,0,0.1,0c1.8,0,3.1-1.4,3.1-3.2V33c0-2,3-2.6,3-2.6v65.6c0,2.2,2,3.9,4.2,3.9h0.6
		c2.2,0,4.2-1.8,4.2-3.9V60c0-2,3-2,3,0v36.1c0,2.2,1.7,3.9,3.9,3.9H56c2.2,0,4-1.8,4-3.9V30.6C60,30.6,63,31.1,63,33.1z"/>
</g>
<g id="male_1_">
	<g id="XMLID_11_">
		<circle id="XMLID_37_" class="st0" cx="49.5" cy="7.8" r="8"/>
	</g>
	<g id="XMLID_3_">
		<path id="XMLID_36_" class="st0" d="M62.9,33.1V55c0,1.8,1.5,3.3,3.3,3.3c0,0,0.1,0,0.1,0c1.8,0,3.3-1.5,3.3-3.3V27.7
			c0-4.8-3.9-8.8-8.8-8.8H39.2c-4.8,0-8.8,3.9-8.8,8.8v26.1c0,1.8,1.5,3.3,3.3,3.3c0,0,0.1,0,0.1,0c1.8,0,3.3-1.5,3.3-3.3V33
			c0-2,3.1-2.6,3.1-2.6v65.6c0,2.2,1.8,3.9,3.9,3.9h0.6c2.2,0,3.9-1.8,3.9-3.9V60.4c0-2,3.1-2,3.1,0v35.7c0,2.2,1.8,3.9,3.9,3.9l0,0
			c2.2,0,3.9-1.8,3.9-3.9V30.6C59.8,30.6,62.9,31.1,62.9,33.1z"/>
	</g>
</g>
</svg>
