<?xml version="1.0" encoding="iso-8859-1"?>
<!-- Generator: Adobe Illustrator 19.0.0, SVG Export Plug-In . SVG Version: 6.00 Build 0)  -->
<svg version="1.1" id="Layer_1" xmlns="http://www.w3.org/2000/svg" xmlns:xlink="http://www.w3.org/1999/xlink" x="0px" y="0px"
	 viewBox="0 0 100 100" style="enable-background:new 0 0 100 100;" xml:space="preserve">
<path style="fill:#5B5C5C;" d="M89.54,74.213V62.797c0-0.202-0.046-0.401-0.134-0.587l-3.168-6.631
	c-0.089-0.186-0.134-0.385-0.134-0.587V13.009c0-0.481-0.259-0.93-0.698-1.218C82.247,9.721,68.634,1.572,50.015,1.572
	s-32.231,8.149-35.39,10.219c-0.438,0.287-0.698,0.736-0.698,1.218v41.982c0,0.202-0.046,0.401-0.134,0.587l-3.168,6.631
	c-0.089,0.186-0.134,0.385-0.134,0.587v11.417H8.772v9.08c0,0.836,0.769,1.513,1.718,1.513c0.949,0,1.718,0.678,1.718,1.513v8.595
	c0,0.329,0.122,0.65,0.347,0.912l1.715,1.999c0.325,0.379,0.832,0.601,1.371,0.601h5.041c0.943,0,1.71-0.67,1.718-1.5l0.103-10.62
	c0.008-0.831,0.775-1.5,1.718-1.5h2.939c0.417,0,0.819,0.133,1.133,0.375l4.908,3.789c0.313,0.242,0.716,0.375,1.133,0.375h15.679
	h15.679c0.417,0,0.819-0.133,1.133-0.375l4.908-3.789c0.313-0.242,0.716-0.375,1.133-0.375h2.939c0.943,0,1.71,0.67,1.718,1.5
	l0.103,10.62c0.008,0.831,0.775,1.5,1.718,1.5h5.041c0.539,0,1.046-0.223,1.371-0.601l1.715-1.999
	c0.225-0.263,0.347-0.583,0.347-0.912v-8.595c0-0.836,0.769-1.513,1.718-1.513c0.949,0,1.718-0.678,1.718-1.513v-9.08H89.54z
	 M23.829,69.84c-3.022,0-5.471-2.45-5.471-5.471s2.45-5.471,5.471-5.471s5.471,2.45,5.471,5.471S26.851,69.84,23.829,69.84z
	 M24.47,42.57c-1.921,0-3.158-1.528-2.773-3.366l4.236-20.205c0.272-1.297,1.754-2.327,3.315-2.327h41.503
	c1.562,0,3.044,1.03,3.315,2.327l4.236,20.205c0.385,1.839-0.852,3.366-2.773,3.366H24.47z M76.171,69.84
	c-3.022,0-5.471-2.45-5.471-5.471s2.45-5.471,5.471-5.471s5.471,2.45,5.471,5.471S79.192,69.84,76.171,69.84z"/>
</svg>
