<?xml version="1.0" encoding="utf-8"?>
<!-- Generator: Adobe Illustrator 19.0.0, SVG Export Plug-In . SVG Version: 6.00 Build 0)  -->
<svg version="1.1" id="Layer_1" xmlns="http://www.w3.org/2000/svg" xmlns:xlink="http://www.w3.org/1999/xlink" x="0px" y="0px"
	 viewBox="0 0 100 100" style="enable-background:new 0 0 100 100;" xml:space="preserve">
<style type="text/css">
	.st0{fill:#19A6CC;}
</style>
<path class="st0" d="M97.6,25.7c-0.5-1.3-1.3-2.8-2.5-3.5c-0.4-0.2-0.8,0.4-1.7,0.6c-0.8,0.2-14.2-5.9-15.1-6.3
	c-0.9-0.4-0.9-0.8-1.9-1.2c-0.9-0.4-4.1,0.7-6.2,0.9c-2.1,0.3-13,4.2-16.2,4.8c-3.4,0.6-6.9,0.7-10.4,0.8c-2.5,0.1-5.1,0.2-7.6,0.4
	c-2.4,0.2-4.8,0.3-7,1.1c-2,0.7-3.5,2.4-5.2,3.6c-1.7,1.2-3.4,2.3-5,3.5c-2.4,1.6-4.9,3.2-7.3,4.8c-1.1,0.7-2.3,1.5-3.4,2.2
	c0,0,0,0,0,0c-0.1,0.1-2,1-2.9,1.3c-0.9,0.3-3.4,0.8-3.6,1.7c-0.1,0.3,0.1,0.5,0.1,0.8c0.8,3.1,1.9,6.5,4.7,8.4
	c1.6,1,3.5,1.4,5.4,1.6c2.2,0.2,4.4,0.3,6.6,0.6c0.2,0,0.3,0.1,0.5,0.2c0.1,0.1,0.1,0.3,0.1,0.4c0,1.1,0.1,2.1,0.1,3.2
	c0,1.7,0,3.5,0.1,5.2c0,0.5,0.1,1,0.4,1.4c0.3,0.3,0.6,0.5,1,0.6c2.9,1.1,5.9,1.1,8.9,1.2c0.8,0,1,0.5,1.5,1.1
	c1.1,1.2,2.3,2.3,3.6,3.4c3,2.6,6.2,4.9,9.6,6.8c4.8,2.6,10,4.4,15.3,5.9c2.9,0.9,5.9,1.7,8.9,2.3c6.1,1.2,12.7,1.5,18.6-0.8
	c4.3-1.7,8.6-5,9.1-10c0.3-3.5-2-6.2-3.8-9c-0.7-1-1.2-2.1-1.5-3.3c-0.2-1.1-0.5-3.2-0.6-4c0-0.2,0.1-0.4,0.3-0.4l1.9-0.4
	c0.2,0,0.3-0.2,0.3-0.4l0-4.4c0-0.2-0.1-0.3-0.3-0.4l-2.2-0.5c-0.2,0-0.3-0.2-0.3-0.4c0.1-0.9,0.3-3.5,0.5-4.9
	c0.1-0.8,0.9-0.8,1.5-1c0.6-0.2,1.2-0.3,1.6-0.8c0.5-0.6,0.4-1.5,0.6-2.3c0.2-1,0.4-1.9,0.8-2.9c0.5-1.1,1.2-2.2,1.7-3.3
	c0.7-1.3,1.3-2.6,1.6-4C98.2,28.9,98.1,27.2,97.6,25.7z M79,45.9c-3.2,1.1-6.7-2.3-7.4-7.7c-0.7-5.4,1.9-9.5,5.2-9.3
	c2.9,0.2,5.4,3.7,6,7.8C83.3,40.9,81.8,44.9,79,45.9z"/>
<g id="Layer_2">
</g>
</svg>
