<?xml version="1.0" encoding="utf-8"?>
<!-- Generator: Adobe Illustrator 19.0.0, SVG Export Plug-In . SVG Version: 6.00 Build 0)  -->
<svg version="1.1" id="Layer_1" xmlns="http://www.w3.org/2000/svg" xmlns:xlink="http://www.w3.org/1999/xlink" x="0px" y="0px"
	 viewBox="0 0 100 100" style="enable-background:new 0 0 100 100;" xml:space="preserve">
<style type="text/css">
	.st0{fill:#19A6CC;}
</style>
<g id="female">
	<g id="XMLID_6_">
		<circle id="XMLID_21_" class="st0" cx="68.5" cy="8" r="8"/>
	</g>
	<g id="XMLID_7_">
		<path id="XMLID_22_" class="st0" d="M80.2,34.4L88.6,52c0.7,1.7,2.6,2.5,4.3,1.8c0,0,0.1,0,0.1,0c1.7-0.7,2.5-2.6,1.8-4.3
			c0,0-6.9-15-10.5-22.6s-11.4-7.6-11.4-7.6h-8.4c0,0-8.2,0-11.1,7.7c-2.9,7.7-8.3,22.1-8.3,22.1c-0.6,1.7,0.3,3.6,2.1,4.2
			c0,0,0.1,0,0.1,0c1.7,0.6,3.6-0.3,4.1-2.1L58,34c0.6-1.9,3.8-1.4,3.8-1.4L49.1,68.8h11v27.3c0,2.2,1.3,3.9,3.5,3.9h0.6
			c2.2,0,3.9-1.8,3.9-3.9V70.7c0-2,3.1-2,3.1,0v25.4c0,2.2,1.8,3.9,3.9,3.9l0,0c2.2,0,3.4-1.8,3.4-3.9V68.8h10.8l-13-35.6
			C76.4,33.2,79.5,32.5,80.2,34.4z"/>
	</g>
</g>
<g id="male_1_">
	<g id="XMLID_11_">
		<circle id="XMLID_24_" class="st0" cx="24.9" cy="7.9" r="8"/>
	</g>
	<g id="XMLID_3_">
		<path id="XMLID_23_" class="st0" d="M38.3,33.2v21.9c0,1.8,1.5,3.3,3.3,3.3c0,0,0.1,0,0.1,0c1.8,0,3.3-1.5,3.3-3.3V27.8
			c0-4.8-3.9-8.8-8.8-8.8H14.7c-4.8,0-8.8,3.9-8.8,8.8v26.1c0,1.8,1.5,3.3,3.3,3.3c0,0,0.1,0,0.1,0c1.8,0,3.3-1.5,3.3-3.3V33.1
			c0-2,3.1-2.6,3.1-2.6v65.6c0,2.2,1.8,3.9,3.9,3.9h0.6c2.2,0,3.9-1.8,3.9-3.9V60.5c0-2,3.1-2,3.1,0v35.7c0,2.2,1.8,3.9,3.9,3.9l0,0
			c2.2,0,3.9-1.8,3.9-3.9V30.7C35.2,30.7,38.3,31.2,38.3,33.2z"/>
	</g>
</g>
</svg>
