<?xml version="1.0" encoding="iso-8859-1"?>
<!-- Generator: Adobe Illustrator 19.0.0, SVG Export Plug-In . SVG Version: 6.00 Build 0)  -->
<svg version="1.1" id="Layer_1" xmlns="http://www.w3.org/2000/svg" xmlns:xlink="http://www.w3.org/1999/xlink" x="0px" y="0px"
	 viewBox="0 0 100 100" style="enable-background:new 0 0 100 100;" xml:space="preserve">
<path id="XMLID_9_" style="fill:#5B5C5C;" d="M50,10.169c-21.998,0-39.831,17.833-39.831,39.831
	c0,21.998,17.833,39.831,39.831,39.831S89.831,71.998,89.831,50C89.831,28.002,71.998,10.169,50,10.169z M50,79.56
	c-16.325,0-29.56-13.234-29.56-29.56c0-16.325,13.234-29.56,29.56-29.56c16.325,0,29.56,13.234,29.56,29.56
	C79.56,66.325,66.325,79.56,50,79.56z"/>
<g id="XMLID_2_">
	<path id="XMLID_3_" style="fill:#5B5C5C;" d="M45.225,55.621c-0.231-1.272-0.183-2.418,0.144-3.439
		c0.327-1.021,0.78-1.936,1.359-2.745c0.578-0.809,1.243-1.541,1.994-2.197c0.752-0.655,1.454-1.29,2.11-1.907
		c0.655-0.616,1.214-1.232,1.676-1.849c0.463-0.616,0.694-1.29,0.694-2.023c0-1.232-0.405-2.147-1.214-2.745
		c-0.809-0.597-1.831-0.896-3.064-0.896c-1.195,0-2.254,0.252-3.179,0.752c-0.924,0.501-1.831,1.137-2.716,1.907l-4.74-4.335
		c1.388-1.541,3.025-2.793,4.913-3.757c1.888-0.963,3.988-1.445,6.301-1.445c1.656,0,3.207,0.193,4.653,0.578
		c1.445,0.386,2.697,0.974,3.757,1.763c1.059,0.79,1.897,1.773,2.514,2.948c0.616,1.176,0.925,2.553,0.925,4.132
		c0,1.272-0.231,2.37-0.694,3.295s-1.04,1.773-1.734,2.543c-0.693,0.771-1.426,1.484-2.196,2.139
		c-0.771,0.655-1.484,1.339-2.139,2.052c-0.656,0.713-1.176,1.484-1.561,2.312c-0.386,0.829-0.521,1.802-0.405,2.92H45.225z
		 M43.375,65.158c0-1.734,0.55-3.13,1.648-4.191c1.098-1.059,2.475-1.589,4.132-1.589c1.657,0,3.035,0.53,4.133,1.589
		c1.098,1.061,1.647,2.457,1.647,4.191c0,1.734-0.549,3.15-1.647,4.248c-1.098,1.098-2.477,1.647-4.133,1.647
		c-1.657,0-3.035-0.549-4.132-1.647C43.925,68.308,43.375,66.892,43.375,65.158z"/>
</g>
</svg>
