<?xml version="1.0" encoding="utf-8"?>
<!-- Generator: Adobe Illustrator 19.0.0, SVG Export Plug-In . SVG Version: 6.00 Build 0)  -->
<svg version="1.1" id="Layer_1" xmlns="http://www.w3.org/2000/svg" xmlns:xlink="http://www.w3.org/1999/xlink" x="0px" y="0px"
	 viewBox="0 0 100 100" style="enable-background:new 0 0 100 100;" xml:space="preserve">
<style type="text/css">
	.st0{fill:#19A6CC;}
</style>
<path id="XMLID_9_" class="st0" d="M50,10.2C28,10.2,10.2,28,10.2,50S28,89.8,50,89.8S89.8,72,89.8,50S72,10.2,50,10.2z M50,79.6
	c-16.3,0-29.6-13.2-29.6-29.6c0-16.3,13.2-29.6,29.6-29.6c16.3,0,29.6,13.2,29.6,29.6C79.6,66.3,66.3,79.6,50,79.6z"/>
<g id="XMLID_2_">
	<path id="XMLID_3_" class="st0" d="M45.2,55.6c-0.2-1.3-0.2-2.4,0.1-3.4s0.8-1.9,1.4-2.7c0.6-0.8,1.2-1.5,2-2.2
		c0.8-0.7,1.5-1.3,2.1-1.9c0.7-0.6,1.2-1.2,1.7-1.8c0.5-0.6,0.7-1.3,0.7-2c0-1.2-0.4-2.1-1.2-2.7c-0.8-0.6-1.8-0.9-3.1-0.9
		c-1.2,0-2.3,0.3-3.2,0.8c-0.9,0.5-1.8,1.1-2.7,1.9l-4.7-4.3c1.4-1.5,3-2.8,4.9-3.8c1.9-1,4-1.4,6.3-1.4c1.7,0,3.2,0.2,4.7,0.6
		c1.4,0.4,2.7,1,3.8,1.8c1.1,0.8,1.9,1.8,2.5,2.9c0.6,1.2,0.9,2.6,0.9,4.1c0,1.3-0.2,2.4-0.7,3.3s-1,1.8-1.7,2.5
		c-0.7,0.8-1.4,1.5-2.2,2.1c-0.8,0.7-1.5,1.3-2.1,2.1c-0.7,0.7-1.2,1.5-1.6,2.3c-0.4,0.8-0.5,1.8-0.4,2.9L45.2,55.6L45.2,55.6z
		 M43.4,65.2c0-1.7,0.5-3.1,1.6-4.2c1.1-1.1,2.5-1.6,4.1-1.6s3,0.5,4.1,1.6c1.1,1.1,1.6,2.5,1.6,4.2s-0.5,3.2-1.6,4.2
		s-2.5,1.6-4.1,1.6c-1.7,0-3-0.5-4.1-1.6C43.9,68.3,43.4,66.9,43.4,65.2z"/>
</g>
</svg>
