<?xml version="1.0" encoding="utf-8"?>
<!-- Generator: Adobe Illustrator 19.0.0, SVG Export Plug-In . SVG Version: 6.00 Build 0)  -->
<svg version="1.1" id="Layer_1" xmlns="http://www.w3.org/2000/svg" xmlns:xlink="http://www.w3.org/1999/xlink" x="0px" y="0px"
	 viewBox="0 0 100 100" style="enable-background:new 0 0 100 100;" xml:space="preserve">
<style type="text/css">
	.st0{fill:#19A6CC;}
</style>
<path id="XMLID_3_" class="st0" d="M22,18.1c0,0,29.6,20,74.3,11.9l-0.7,3.8l1.6,0.1l-0.6,3.9l1.2,0.2l-0.9,4.2l0.9,0.2L97,46.5
	l1,0.2l-1.1,3.2l1.5,0.5c0,0-7.7,28.7-9.8,31L44.6,69.7c-0.5-0.2-1.1-0.4-1.6-0.5c-1.4-0.5-2.8-0.9-4.2-1.4c-2-0.7-4-1.3-6-2
	c-2.3-0.8-4.6-1.5-6.8-2.3c-2.3-0.8-4.6-1.5-6.8-2.3c-2-0.7-4-1.3-6-2c-1.4-0.5-3.1-2.1-4.5-2.6c-0.5-0.2-1-0.4-1.6-0.5
	c0.6-0.7,1.1-1.3,1.7-2l-1.7-0.7l1.3-1.1l-4.8-2.6l1.8-1.2l-1.9-1.2l1.4-1l-3.9-3l3.7-2.6L1.5,38c0,0,6.2-3.2,10.7-9.1
	S22,18.1,22,18.1z"/>
</svg>
