<?xml version="1.0" encoding="iso-8859-1"?>
<!-- Generator: Adobe Illustrator 19.0.0, SVG Export Plug-In . SVG Version: 6.00 Build 0)  -->
<svg version="1.1" id="Layer_1" xmlns="http://www.w3.org/2000/svg" xmlns:xlink="http://www.w3.org/1999/xlink" x="0px" y="0px"
	 viewBox="0 0 100 100" style="enable-background:new 0 0 100 100;" xml:space="preserve">
<path id="XMLID_2_" style="fill:#5B5C5C;" d="M73.863,5.271c-10.338,0.647-21.009,8.79-22.69,19.352
	c-1.292,8.117,2.939,16.784,5.631,24.252c2.391,6.633,4.895,13.225,7.444,19.799c3.302,8.515,6.613,17.041,10.187,25.446
	c0.375,0.883,1.627,0.868,1.977-0.026c3.684-9.405,7.608-18.716,11.335-28.104c2.437-6.138,4.843-12.291,7.138-18.484
	c2.25-6.072,5.112-11.889,5.114-18.539C100.004,15.386,87.207,4.436,73.863,5.271z M76.435,39.56
	c-6.038,0.598-11.07-4.434-10.472-10.472c0.442-4.468,4.056-8.081,8.524-8.524c6.037-0.598,11.07,4.434,10.472,10.472
	C84.516,35.504,80.903,39.118,76.435,39.56z"/>
<g id="XMLID_12_">
	<path id="XMLID_33_" style="fill:#5B5C5C;" d="M65.526,30.114c0-0.771,0.103-1.517,0.278-2.236
		c-6.688-8.809-17.268-14.5-29.181-14.5C16.396,13.378,0,29.774,0,50s16.396,36.622,36.622,36.622
		c20.226,0,36.622-16.396,36.622-36.622c0-3.839-0.593-7.539-1.689-11.016C68.014,37.529,65.526,34.106,65.526,30.114z
		 M36.622,78.248C21.021,78.248,8.374,65.601,8.374,50c0-15.601,12.647-28.249,28.248-28.249c15.601,0,28.248,12.647,28.248,28.249
		C64.871,65.601,52.224,78.248,36.622,78.248z"/>
</g>
<polyline id="XMLID_1_" style="fill:none;stroke:#5B5C5C;stroke-width:6;stroke-linecap:round;stroke-miterlimit:10;" points="
	25.624,64.355 38.887,51.092 38.963,31.57 "/>
</svg>
