<?xml version="1.0" encoding="iso-8859-1"?>
<!-- Generator: Adobe Illustrator 19.0.0, SVG Export Plug-In . SVG Version: 6.00 Build 0)  -->
<svg version="1.1" xmlns="http://www.w3.org/2000/svg" xmlns:xlink="http://www.w3.org/1999/xlink" x="0px" y="0px"
	 viewBox="0 0 100 100" style="enable-background:new 0 0 100 100;" xml:space="preserve">
<g id="Layer_1" style="display:none;">
</g>
<g id="Layer_2">
	<g id="XMLID_3_">
		<path id="XMLID_9_" style="fill:#5B5C5C;" d="M49.937,17.652c-17.861,0-32.341,14.479-32.341,32.341
			c0,17.861,14.479,32.34,32.341,32.34s32.341-14.479,32.341-32.34C82.277,32.132,67.798,17.652,49.937,17.652z M49.937,68.761
			c-10.365,0-18.768-8.403-18.768-18.768c0-10.365,8.403-18.768,18.768-18.768c10.365,0,18.768,8.403,18.768,18.768
			C68.705,60.358,60.302,68.761,49.937,68.761z"/>
		<path id="XMLID_2_" style="fill:#5B5C5C;" d="M17.606,50.781c0,0-7.757-1.521-8.252-2.581l1.025-8.306
			c0,0,3.842-0.877,8.955-0.385L17.606,50.781z"/>
		<path id="XMLID_6_" style="fill:#5B5C5C;" d="M22.8,32.627c0,0-5.532-5.647-5.339-6.801l5.549-6.265c0,0,3.663,1.453,7.599,4.754
			L22.8,32.627z"/>
		<path id="XMLID_10_" style="fill:#5B5C5C;" d="M35.482,21.414c0,0-1.798-7.697-1.035-8.584l7.994-2.476
			c0,0,2.377,3.143,4.028,8.007L35.482,21.414z"/>
		<path id="XMLID_11_" style="fill:#5B5C5C;" d="M53.169,18.346c0,0,2.772-7.403,3.899-7.717l8.026,2.372
			c0,0,0.235,3.934-1.087,8.897L53.169,18.346z"/>
		<path id="XMLID_12_" style="fill:#5B5C5C;" d="M69.942,24.563c0,0,6.401-4.638,7.514-4.277l5.377,6.413
			c0,0-1.978,3.409-5.823,6.814L69.942,24.563z"/>
		<path id="XMLID_13_" style="fill:#5B5C5C;" d="M80.355,39.446c0,0,8.181-0.666,8.953,0.213l1.338,8.261
			c0,0-3.444,1.916-8.49,2.874L80.355,39.446z"/>
		<path id="XMLID_14_" style="fill:#5B5C5C;" d="M81.351,57.569c0,0,6.693,4.206,6.774,5.373l-3.94,7.383
			c0,0-3.901-0.562-8.496-2.856L81.351,57.569z"/>
		<path id="XMLID_15_" style="fill:#5B5C5C;" d="M72.519,72.863c0,0,3.936,6.855,3.46,7.924l-6.944,4.67c0,0-3.181-2.327-6.161-6.51
			L72.519,72.863z"/>
		<path id="XMLID_16_" style="fill:#5B5C5C;" d="M55.62,81.143c0,0-0.574,7.884-1.567,8.503l-8.369-0.015
			c0,0-1.334-3.708-1.463-8.843L55.62,81.143z"/>
		<path id="XMLID_17_" style="fill:#5B5C5C;" d="M37.856,79.146c0,0-4.276,6.648-5.445,6.717l-7.341-4.018
			c0,0,0.603-3.895,2.947-8.465L37.856,79.146z"/>
		<path id="XMLID_18_" style="fill:#5B5C5C;" d="M23.196,68.072c0,0-7.328,2.963-8.322,2.346L11.196,62.9
			c0,0,2.739-2.833,7.29-5.215L23.196,68.072z"/>
	</g>
</g>
</svg>
