<?xml version="1.0" encoding="utf-8"?>
<!-- Generator: Adobe Illustrator 19.0.0, SVG Export Plug-In . SVG Version: 6.00 Build 0)  -->
<svg version="1.1" id="Layer_1" xmlns="http://www.w3.org/2000/svg" xmlns:xlink="http://www.w3.org/1999/xlink" x="0px" y="0px"
	 viewBox="0 0 100 100" style="enable-background:new 0 0 100 100;" xml:space="preserve">
<style type="text/css">
	.st0{display:none;}
	.st1{fill:#19A6CC;}
</style>
<g id="Layer_1_1_" class="st0">
</g>
<g id="Layer_2">
	<g id="XMLID_3_">
		<path id="XMLID_9_" class="st1" d="M49.9,17.7c-17.9,0-32.3,14.5-32.3,32.3c0,17.9,14.5,32.3,32.3,32.3S82.3,67.9,82.3,50
			C82.3,32.1,67.8,17.7,49.9,17.7z M49.9,68.8c-10.4,0-18.8-8.4-18.8-18.8s8.4-18.8,18.8-18.8S68.7,39.6,68.7,50
			S60.3,68.8,49.9,68.8z"/>
		<path id="XMLID_2_" class="st1" d="M17.6,50.8c0,0-7.8-1.5-8.3-2.6l1-8.3c0,0,3.8-0.9,9-0.4L17.6,50.8z"/>
		<path id="XMLID_6_" class="st1" d="M22.8,32.6c0,0-5.5-5.6-5.3-6.8l5.5-6.3c0,0,3.7,1.5,7.6,4.8L22.8,32.6z"/>
		<path id="XMLID_10_" class="st1" d="M35.5,21.4c0,0-1.8-7.7-1-8.6l8-2.5c0,0,2.4,3.1,4,8L35.5,21.4z"/>
		<path id="XMLID_11_" class="st1" d="M53.2,18.3c0,0,2.8-7.4,3.9-7.7l8,2.4c0,0,0.2,3.9-1.1,8.9L53.2,18.3z"/>
		<path id="XMLID_12_" class="st1" d="M69.9,24.6c0,0,6.4-4.6,7.5-4.3l5.4,6.4c0,0-2,3.4-5.8,6.8L69.9,24.6z"/>
		<path id="XMLID_13_" class="st1" d="M80.4,39.4c0,0,8.2-0.7,9,0.2l1.3,8.3c0,0-3.4,1.9-8.5,2.9L80.4,39.4z"/>
		<path id="XMLID_14_" class="st1" d="M81.4,57.6c0,0,6.7,4.2,6.8,5.4l-3.9,7.4c0,0-3.9-0.6-8.5-2.9L81.4,57.6z"/>
		<path id="XMLID_15_" class="st1" d="M72.5,72.9c0,0,3.9,6.9,3.5,7.9L69,85.5c0,0-3.2-2.3-6.2-6.5L72.5,72.9z"/>
		<path id="XMLID_16_" class="st1" d="M55.6,81.1c0,0-0.6,7.9-1.6,8.5l-8.4,0c0,0-1.3-3.7-1.5-8.8L55.6,81.1z"/>
		<path id="XMLID_17_" class="st1" d="M37.9,79.1c0,0-4.3,6.6-5.4,6.7l-7.3-4c0,0,0.6-3.9,2.9-8.5L37.9,79.1z"/>
		<path id="XMLID_18_" class="st1" d="M23.2,68.1c0,0-7.3,3-8.3,2.3l-3.7-7.5c0,0,2.7-2.8,7.3-5.2L23.2,68.1z"/>
	</g>
</g>
</svg>
